<svg width="100" height="100" viewBox="0 0 100 100" fill="none" xmlns="http://www.w3.org/2000/svg">
<path d="M57.8517 71.3513C62.188 75.7267 62.188 82.8206 57.8517 87.1961C53.5153 91.5715 46.4846 91.5715 42.148 87.1961C37.8117 82.8206 37.8117 75.7267 42.148 71.3513C44.6514 68.8254 46.3648 67.1025 47.7497 65.9846C49.1508 64.8537 49.7483 64.7423 49.9999 64.7423C50.2515 64.7423 50.849 64.8537 52.25 65.9846C53.6348 67.1025 55.3483 68.8254 57.8517 71.3513Z" stroke="white" stroke-width="4"/>
<path d="M42.1482 11.8961C46.4846 7.52065 53.5154 7.52065 57.8518 11.8961C62.1882 16.2714 62.1882 23.3654 57.8518 27.7409C55.3484 30.2666 53.635 31.9896 52.2501 33.1075C50.8491 34.2383 50.2516 34.3497 50 34.3497C49.7483 34.3497 49.1508 34.2383 47.7498 33.1075C46.365 31.9896 44.6515 30.2666 42.1482 27.7409C37.8118 23.3654 37.8118 16.2714 42.1482 11.8961Z" stroke="white" stroke-width="4"/>
<path d="M12.6853 41.6237C17.0218 37.2482 24.0525 37.2482 28.3889 41.6237C30.8922 44.1494 32.5998 45.8783 33.7077 47.2756C34.8286 48.6893 34.939 49.2921 34.939 49.5461C34.939 49.7999 34.8286 50.4028 33.7077 51.8163C32.5998 53.2137 30.8922 54.9425 28.3889 57.4685C24.0525 61.8438 17.0218 61.8438 12.6853 57.4685C8.34888 53.093 8.34888 45.999 12.6853 41.6237Z" stroke="white" stroke-width="4"/>
<path d="M71.6109 57.4683C69.1076 54.9425 67.3999 53.2137 66.292 51.8163C65.1713 50.4028 65.0609 49.7999 65.0609 49.5461C65.0609 49.2921 65.1713 48.6893 66.292 47.2756C67.3999 45.8783 69.1076 44.1494 71.6109 41.6237C75.9473 37.2482 82.9781 37.2482 87.3145 41.6237C91.6509 45.999 91.6509 53.093 87.3145 57.4683C82.9781 61.8438 75.9473 61.8438 71.6109 57.4683Z" stroke="white" stroke-width="4"/>
<path d="M57.8563 71.3461L28.3934 41.6187" stroke="white" stroke-width="4"/>
<path d="M71.6059 41.6187L42.1428 71.3461" stroke="white" stroke-width="4"/>
<path d="M57.8567 27.7458L28.3937 57.4732" stroke="white" stroke-width="4"/>
<path d="M71.606 57.4735L42.1432 27.7458" stroke="white" stroke-width="4"/>
</svg>
