<svg width="72" height="71" viewBox="0 0 72 71" fill="none" stroke="" xmlns="http://www.w3.org/2000/svg">
<g id="LOGO">
<path id="Ellipse 4" d="M41.6532 50.6594C44.7754 53.7659 44.7754 58.8026 41.6532 61.9092C38.531 65.0157 33.4689 65.0157 30.3466 61.9092C27.2244 58.8026 27.2244 53.7659 30.3466 50.6594C32.149 48.866 33.3827 47.6427 34.3798 46.849C35.3886 46.0461 35.8188 45.967 35.9999 45.967C36.1811 45.967 36.6113 46.0461 37.62 46.849C38.6171 47.6427 39.8508 48.866 41.6532 50.6594Z" stroke="white" stroke-width="4"/>
<path id="Ellipse 3" d="M30.3467 8.44618C33.4689 5.33964 38.5311 5.33964 41.6533 8.44618C44.7755 11.5527 44.7755 16.5894 41.6533 19.696C39.8509 21.4893 38.6172 22.7126 37.6201 23.5063C36.6114 24.3092 36.1812 24.3883 36 24.3883C35.8188 24.3883 35.3886 24.3092 34.3799 23.5063C33.3828 22.7126 32.1491 21.4893 30.3467 19.696C27.2245 16.5894 27.2245 11.5527 30.3467 8.44618Z" stroke="white" stroke-width="4"/>
<path id="Ellipse 2" d="M9.13345 29.5528C12.2557 26.4462 17.3178 26.4462 20.44 29.5528C22.2424 31.3461 23.4719 32.5736 24.2696 33.5657C25.0766 34.5694 25.1561 34.9974 25.1561 35.1777C25.1561 35.3579 25.0766 35.786 24.2696 36.7896C23.4719 37.7817 22.2424 39.0092 20.44 40.8026C17.3178 43.9091 12.2557 43.9091 9.13345 40.8026C6.01122 37.696 6.01122 32.6593 9.13345 29.5528Z" stroke="white" stroke-width="4"/>
<path id="Ellipse 1" d="M51.5599 40.8025C49.7575 39.0092 48.528 37.7817 47.7303 36.7896C46.9234 35.786 46.8439 35.3579 46.8439 35.1777C46.8439 34.9974 46.9234 34.5694 47.7303 33.5657C48.528 32.5736 49.7575 31.3461 51.5599 29.5528C54.6821 26.4462 59.7443 26.4462 62.8665 29.5528C65.9887 32.6593 65.9887 37.696 62.8665 40.8025C59.7443 43.9091 54.6821 43.9091 51.5599 40.8025Z" stroke="white" stroke-width="4"/>
<path id="Line 4" d="M41.6566 50.6557L20.4433 29.5492" stroke="white" stroke-width="4"/>
<path id="Line 3" d="M51.5563 29.5492L30.3429 50.6557" stroke="white" stroke-width="4"/>
<path id="Line 2" d="M41.6569 19.6995L20.4435 40.8059" stroke="white" stroke-width="4"/>
<path id="Line 1" d="M51.5563 40.8061L30.3431 19.6995" stroke="white" stroke-width="4"/>
</g>
</svg>
