<svg width="200" height="222" viewBox="0 0 200 222" fill="none" xmlns="http://www.w3.org/2000/svg">
<path fill-rule="evenodd" clip-rule="evenodd" d="M99.6554 0C136.947 23.8748 170.637 35.1699 199.55 32.4997C204.6 135.655 166.882 196.575 100.042 222C35.4947 198.203 -2.68435 139.904 0.147239 30.9351C34.0888 32.7291 67.3882 25.3183 99.6554 0ZM99.6948 12.7458C132.704 33.8781 162.526 43.8779 188.12 41.513C192.588 132.822 159.203 186.749 100.04 209.252C42.9037 188.189 9.1053 136.587 11.6131 40.1273C41.6588 41.7171 71.1338 35.1572 99.6948 12.7458Z" fill="black"/>
<path fill-rule="evenodd" clip-rule="evenodd" d="M54.2316 94.6963C55.1302 93.9315 55.9618 93.4041 57.0079 93.3382C57.5444 93.2986 58.0943 93.3646 58.671 93.5228C60.1732 93.9315 60.7499 94.604 61.8899 95.5797C67.5096 100.445 73.0354 105.838 78.4136 112.035C81.1899 114.54 81.8203 117.151 79.6476 119.656L75.6776 124.02C73.6657 125.998 71.104 125.892 68.3143 123.914C55.7606 113.538 40.9134 108.185 54.2316 94.6963ZM54.2584 118.337C54.5669 127.448 56.2702 133.012 59.5294 139.077C64.3309 145.182 68.2473 151.036 70.3798 156.389C71.8685 160.134 73.089 163.668 74.7253 167.452L88.7812 210H118.5L145.5 193L123.787 158.67C121.52 155.084 121.037 155.954 124.015 153.225C130.064 147.648 135.254 141.583 139.855 135.267C152.502 117.889 159.248 111.428 149.015 93.4964L141.316 79.6784C131.901 62.9597 112.48 78.3731 97.9283 86.5742C93.6766 91.7692 103.28 102.884 111.743 99.7593L122.674 95.7247L125.906 103.253C99.1622 99.7989 93.7169 116.768 91.8526 138.932C89.1836 125.338 91.4368 114.461 96.976 108.936C92.2147 112.377 87.1986 116.887 82.5982 122.504C81.485 123.862 80.3986 125.286 79.3391 126.776C73.7328 134.133 68.0729 129.043 62.7081 124.903C59.8379 122.688 56.914 120.315 54.2584 118.337ZM112.668 48.0078C113.231 48.0474 113.795 48.2056 114.358 48.4429C117.201 49.6823 120.487 55.3255 121.909 57.923C122.821 59.5711 125.396 64.0541 127.489 67.8382L109.53 74.9582C106.646 70.3829 104.058 65.689 101.442 61.9445C99.8596 59.9271 99.6048 57.8966 100.477 55.9321C101.496 53.651 104.058 51.937 106.163 50.658C107.639 49.7746 111.032 47.8628 112.668 48.0078ZM91.3697 59.7426C91.933 59.7557 92.4964 59.8612 93.0865 60.0722C94.6155 60.626 95.152 61.3775 96.2383 62.4982C98.0356 64.3573 99.6718 66.612 101.228 69.0644C102.099 70.4357 104.031 73.3628 106.043 76.4876C99.8462 79.2301 91.4904 80.7069 91.2088 88.5256C87.5473 83.6208 84.2747 78.3731 81.0692 74.3385C79.3659 72.4134 78.9769 70.4093 79.728 68.392C81.0156 64.9507 87.896 59.6766 91.3697 59.7426ZM72.2038 75.5251C72.7403 75.4856 73.2902 75.5515 73.8669 75.7097C75.3691 76.1185 75.9458 76.7909 77.0858 77.7666C78.9501 79.3884 80.6937 81.4189 82.3836 83.634C84.6234 86.5611 93.1938 97.2937 94.4143 99.7593C95.2458 101.447 95.3397 103.201 93.7839 104.994L88.6873 109.859C86.6755 111.837 84.1138 111.731 81.3241 109.754C74.8058 103.57 68.8374 95.817 63.6067 90.2924C61.8229 88.6048 61.2864 86.7193 61.8363 84.7283C62.6946 81.5639 68.9581 75.7361 72.2038 75.5251Z" fill="black"/>
</svg>
