<?xml version="1.0" standalone="no"?>
<!DOCTYPE svg PUBLIC "-//W3C//DTD SVG 20010904//EN"
 "http://www.w3.org/TR/2001/REC-SVG-20010904/DTD/svg10.dtd">
<svg version="1.0" xmlns="http://www.w3.org/2000/svg"
 width="468.000000pt" height="512.000000pt" viewBox="0 0 468.000000 512.000000"
 preserveAspectRatio="xMidYMid meet">

<g transform="translate(0.000000,512.000000) scale(0.100000,-0.100000)"
fill="#000000" stroke="none">
<path d="M2184 5027 c-458 -327 -921 -510 -1474 -583 -77 -10 -228 -18 -395
-20 -245 -4 -272 -6 -289 -23 -17 -17 -18 -40 -17 -327 1 -834 111 -1520 338
-2114 350 -918 972 -1557 1864 -1916 61 -24 119 -44 129 -44 29 0 254 96 410
175 1086 550 1725 1565 1884 2990 29 261 37 429 37 791 0 350 -4 402 -32 420
-7 4 -109 8 -228 9 -230 2 -342 15 -549 61 -419 94 -874 289 -1371 588 -79 47
-151 86 -160 86 -9 0 -76 -42 -147 -93z m355 -529 c577 -331 1090 -500 1564
-515 l177 -6 0 -116 c0 -175 -18 -475 -40 -671 -85 -751 -295 -1327 -659
-1805 -76 -99 -339 -375 -359 -375 -5 0 -70 107 -143 238 -72 130 -147 261
-166 290 -18 29 -33 55 -33 58 0 4 56 64 125 135 120 124 310 366 442 564 109
163 143 249 143 362 0 132 -26 200 -196 510 -112 207 -143 249 -212 286 -143
78 -323 25 -697 -206 -138 -85 -151 -95 -159 -129 -28 -111 126 -268 261 -268
18 0 94 23 169 51 74 28 137 49 139 47 5 -5 65 -145 65 -152 0 -4 -54 -6 -120
-6 -140 0 -202 -11 -290 -53 -175 -82 -282 -284 -325 -612 -8 -59 -16 -109
-19 -112 -10 -11 -18 138 -13 260 5 148 32 246 87 325 27 39 28 42 8 31 -40
-21 -273 -261 -333 -342 -66 -91 -103 -117 -163 -117 -61 0 -116 32 -276 159
-77 61 -141 111 -143 111 -3 0 -2 -30 2 -67 19 -202 69 -344 164 -468 91 -118
165 -257 233 -435 76 -199 300 -852 294 -857 -15 -15 -318 167 -469 280 -596
448 -967 1128 -1121 2052 -44 264 -68 523 -81 886 l-7 176 213 6 c486 14 852
104 1254 306 149 75 453 264 471 292 4 6 15 4 31 -6 14 -9 95 -57 182 -107z"/>
<path d="M2628 4026 c-86 -31 -195 -113 -224 -167 -26 -51 -17 -77 83 -243 53
-89 102 -167 109 -175 10 -12 43 -2 206 64 106 42 195 78 197 80 4 5 -117 225
-171 312 -37 59 -108 133 -127 133 -5 0 -15 2 -23 5 -7 2 -29 -2 -50 -9z"/>
<path d="M2112 3740 c-75 -38 -168 -134 -178 -184 -8 -45 1 -71 45 -131 21
-27 77 -108 126 -179 l88 -129 12 47 c21 80 85 131 248 196 31 12 60 26 62 31
3 4 -25 56 -62 114 -119 187 -193 265 -253 265 -15 0 -54 -14 -88 -30z"/>
<path d="M1699 3381 c-45 -29 -113 -96 -143 -141 -21 -32 -20 -98 2 -132 29
-44 259 -307 351 -400 135 -138 167 -140 290 -14 88 91 95 109 65 171 -17 36
-246 344 -322 434 -98 115 -160 136 -243 82z"/>
<path d="M1355 2957 c-125 -129 -129 -253 -11 -371 42 -42 299 -242 365 -283
20 -13 52 -23 71 -23 30 0 44 9 101 70 82 87 97 117 78 164 -28 69 -412 462
-476 488 -48 18 -76 9 -128 -45z"/>
</g>
</svg>
