<?xml version="1.0" standalone="no"?>
<!DOCTYPE svg PUBLIC "-//W3C//DTD SVG 20010904//EN"
 "http://www.w3.org/TR/2001/REC-SVG-20010904/DTD/svg10.dtd">
<svg version="1.0" xmlns="http://www.w3.org/2000/svg"
 width="202.000000pt" height="178.000000pt" viewBox="0 0 202.000000 178.000000"
 preserveAspectRatio="xMidYMid meet">

<g transform="translate(0.000000,178.000000) scale(0.100000,-0.100000)"
fill="#000000" stroke="none">
<path d="M328 1585 c-21 -20 -38 -43 -38 -53 0 -10 28 -59 61 -110 l62 -92 60
0 61 0 210 -210 210 -209 -22 -24 c-27 -28 -28 -47 -4 -73 9 -10 61 -71 113
-134 305 -365 368 -437 405 -457 112 -64 254 23 254 156 0 76 -23 103 -245
289 -115 97 -212 178 -215 182 -21 22 -179 150 -187 150 -6 0 -18 -9 -28 -20
-10 -11 -23 -20 -29 -20 -6 0 -102 91 -214 203 l-202 202 0 55 c0 30 -4 60 -8
66 -8 13 -191 134 -201 134 -3 0 -23 -16 -43 -35z m124 -82 c66 -44 69 -48 66
-82 -3 -32 -6 -36 -34 -39 -29 -3 -36 3 -83 69 -39 56 -48 75 -40 86 6 7 14
13 17 13 3 0 36 -21 74 -47z m852 -784 c120 -101 239 -201 264 -221 25 -20 54
-53 65 -74 16 -32 17 -43 8 -75 -19 -63 -78 -97 -146 -85 -36 7 -27 -3 -400
441 -56 66 -105 126 -109 133 -6 9 4 27 30 53 32 33 40 37 53 26 9 -8 114 -97
235 -198z"/>
<path d="M1303 1605 c-70 -19 -138 -55 -190 -99 -35 -30 -44 -46 -54 -93 -7
-35 -9 -86 -5 -130 l7 -73 -63 -66 c-65 -67 -78 -97 -43 -102 30 -4 180 151
170 175 -15 36 -17 158 -3 197 23 68 179 154 263 144 l30 -3 -70 -73 c-86 -91
-86 -91 -75 -133 23 -82 96 -151 172 -164 40 -7 41 -6 117 69 42 42 80 74 83
71 3 -3 1 -29 -3 -57 -11 -66 -58 -164 -99 -203 -31 -30 -32 -30 -150 -30
l-119 0 -41 -40 c-22 -21 -40 -47 -40 -56 0 -32 29 -29 68 5 l37 34 85 -5
c153 -9 212 26 278 167 33 69 36 82 36 174 1 83 -2 100 -16 110 -15 9 -33 -4
-117 -88 -86 -86 -102 -98 -124 -92 -37 9 -88 55 -104 95 l-15 34 96 96 c100
100 117 133 74 145 -39 10 -130 5 -185 -9z"/>
<path d="M570 718 c-138 -139 -259 -266 -267 -282 -17 -32 -19 -99 -5 -137 15
-37 76 -87 117 -95 84 -15 93 -10 344 241 203 202 233 236 222 249 -8 9 -18
16 -25 16 -6 0 -110 -99 -232 -221 -203 -203 -224 -221 -262 -226 -49 -7 -84
12 -107 57 -33 64 -24 77 251 351 183 183 254 260 254 276 0 16 -6 23 -19 23
-11 0 -121 -103 -271 -252z"/>
</g>
</svg>
