<?xml version="1.0" standalone="no"?>
<!DOCTYPE svg PUBLIC "-//W3C//DTD SVG 20010904//EN"
 "http://www.w3.org/TR/2001/REC-SVG-20010904/DTD/svg10.dtd">
<svg version="1.0" xmlns="http://www.w3.org/2000/svg"
 width="258.000000pt" height="253.000000pt" viewBox="0 0 258.000000 253.000000"
 preserveAspectRatio="xMidYMid meet">

<g transform="translate(0.000000,253.000000) scale(0.100000,-0.100000)"
fill="#000000" stroke="none">
<path d="M1350 2360 c-310 -54 -541 -327 -544 -640 -1 -118 16 -197 63 -291
42 -85 62 -102 88 -76 17 17 17 19 -4 60 -65 124 -89 229 -78 339 26 270 207
475 469 533 258 57 537 -80 651 -320 42 -90 56 -152 57 -256 0 -106 -22 -193
-73 -287 -32 -59 -38 -76 -28 -88 34 -41 78 8 132 146 26 64 30 92 34 195 4
89 1 138 -11 189 -42 178 -184 356 -347 434 -130 63 -276 85 -409 62z"/>
<path d="M1210 1980 c-45 -24 -73 -72 -73 -127 0 -50 22 -86 73 -120 87 -60
212 12 212 121 0 113 -112 179 -212 126z m104 -60 c15 -5 28 -21 33 -37 10
-37 6 -53 -20 -80 -56 -61 -151 12 -112 87 21 40 50 49 99 30z"/>
<path d="M1592 1948 c-57 -78 -283 -396 -320 -449 -26 -39 -29 -49 -18 -64 7
-9 21 -16 31 -14 10 2 69 74 133 164 63 88 148 206 188 263 76 105 83 119 62
140 -21 21 -37 13 -76 -40z"/>
<path d="M1604 1699 c-41 -12 -91 -69 -99 -113 -9 -46 8 -96 45 -131 41 -39
128 -47 178 -15 57 35 79 127 47 190 -30 57 -106 88 -171 69z m99 -87 c24 -21
22 -77 -3 -102 -30 -30 -83 -27 -109 6 -25 32 -26 52 -5 82 30 43 78 48 117
14z"/>
<path d="M823 1236 c-85 -28 -136 -57 -218 -124 -52 -42 -64 -47 -83 -39 -21
9 -32 1 -113 -79 -49 -49 -89 -92 -89 -96 0 -10 30 -38 40 -38 5 0 38 29 74
65 35 36 68 65 73 65 12 0 383 -373 383 -386 0 -5 -16 -26 -36 -45 -44 -42
-56 -63 -48 -83 12 -32 49 -17 109 45 33 33 72 67 87 75 21 11 79 14 271 14
191 0 254 3 287 15 51 18 608 365 637 397 30 34 41 76 31 127 -14 77 -68 116
-152 109 -39 -3 -79 -20 -174 -72 l-124 -68 -26 25 c-49 45 -61 47 -279 47
-201 0 -211 1 -259 24 -74 37 -120 46 -224 45 -71 0 -113 -6 -167 -23z m250
-50 c26 -3 79 -19 117 -36 l68 -30 205 0 c192 0 206 -1 231 -21 36 -28 36 -80
0 -108 -25 -20 -39 -21 -285 -21 -237 0 -259 -1 -268 -18 -6 -11 -6 -24 0 -35
9 -15 34 -17 272 -17 229 0 266 2 297 18 39 19 80 74 80 107 0 17 13 30 53 50
28 15 88 47 133 71 91 50 140 56 169 24 24 -26 23 -74 -1 -101 -10 -11 -43
-35 -71 -52 -29 -18 -152 -94 -272 -170 -121 -76 -237 -145 -258 -154 -31 -13
-86 -17 -298 -21 -143 -2 -267 -8 -277 -13 -13 -7 -53 28 -192 165 -97 95
-176 178 -176 184 0 20 94 93 167 129 76 38 175 62 228 57 17 -2 52 -6 78 -8z"/>
</g>
</svg>
