<?xml version="1.0" standalone="no"?>
<!DOCTYPE svg PUBLIC "-//W3C//DTD SVG 20010904//EN"
 "http://www.w3.org/TR/2001/REC-SVG-20010904/DTD/svg10.dtd">
<svg version="1.0" xmlns="http://www.w3.org/2000/svg"
 width="168.000000pt" height="194.000000pt" viewBox="0 0 168.000000 194.000000"
 preserveAspectRatio="xMidYMid meet">

<g transform="translate(0.000000,194.000000) scale(0.100000,-0.100000)"
fill="#000000" stroke="none">
<path d="M779 1801 c-146 -90 -339 -153 -532 -172 -62 -6 -116 -14 -120 -19
-5 -4 -7 -183 -5 -396 5 -381 5 -391 30 -474 85 -285 283 -498 573 -616 116
-48 141 -50 217 -25 193 64 406 218 508 365 49 72 108 203 132 296 22 81 23
102 23 470 l0 385 -50 7 c-27 3 -91 11 -140 17 -155 18 -313 73 -460 160 -48
28 -90 51 -93 50 -4 -1 -41 -22 -83 -48z m131 -53 c152 -93 347 -160 535 -182
l100 -11 3 -280 c4 -394 -13 -515 -94 -679 -100 -200 -295 -358 -541 -440
l-51 -17 -79 30 c-296 114 -501 331 -574 606 -20 72 -22 114 -26 431 l-5 351
76 6 c174 15 340 65 500 151 56 30 106 55 111 55 6 1 26 -9 45 -21z"/>
<path d="M775 1393 c-78 -41 -114 -104 -115 -200 l0 -63 -35 0 c-25 0 -44 -8
-60 -25 -25 -24 -25 -24 -25 -238 0 -197 2 -217 19 -238 19 -24 20 -24 282
-27 145 -2 274 0 287 3 12 3 31 14 42 25 19 19 20 34 20 235 0 216 0 216 -25
240 -16 17 -35 25 -58 25 l-35 0 -4 74 c-3 64 -8 81 -34 118 -42 61 -94 88
-169 87 -35 0 -73 -6 -90 -16z m171 -68 c35 -22 64 -89 64 -148 l0 -48 -142 3
-143 3 1 63 c1 72 18 103 74 134 41 23 106 20 146 -7z m170 -266 c19 -15 20
-369 2 -387 -17 -17 -489 -17 -506 0 -8 8 -12 66 -12 195 0 159 2 183 17 191
24 14 483 15 499 1z"/>
<path d="M846 934 c-34 -33 -14 -154 24 -154 31 0 42 126 14 154 -8 9 -17 16
-19 16 -2 0 -11 -7 -19 -16z"/>
</g>
</svg>
