<?xml version="1.0" standalone="no"?>
<!DOCTYPE svg PUBLIC "-//W3C//DTD SVG 20010904//EN"
 "http://www.w3.org/TR/2001/REC-SVG-20010904/DTD/svg10.dtd">
<svg version="1.0" xmlns="http://www.w3.org/2000/svg"
 width="788.000000pt" height="871.000000pt" viewBox="0 0 788.000000 871.000000"
 preserveAspectRatio="xMidYMid meet">

<g transform="translate(0.000000,871.000000) scale(0.100000,-0.100000)"
fill="#000000" stroke="none">
<path d="M3866 8034 c-83 -20 -173 -70 -319 -179 -145 -108 -203 -141 -267
-150 -26 -4 -131 3 -245 15 -170 19 -212 21 -280 11 -109 -15 -188 -55 -258
-130 -66 -71 -106 -143 -181 -321 -32 -74 -73 -156 -91 -182 -42 -57 -81 -81
-278 -167 -84 -37 -179 -84 -210 -105 -79 -53 -151 -135 -178 -204 -31 -80
-37 -239 -14 -419 22 -173 16 -257 -21 -321 -15 -26 -65 -98 -112 -161 -157
-210 -192 -290 -192 -428 1 -135 41 -221 203 -436 142 -188 152 -225 122 -467
-11 -91 -16 -181 -13 -255 4 -107 6 -118 41 -189 61 -123 159 -196 392 -291
233 -96 263 -126 360 -360 96 -233 169 -331 291 -392 70 -34 83 -37 184 -41
68 -3 163 2 256 13 252 30 284 21 487 -133 194 -148 292 -192 424 -192 136 1
215 37 433 200 67 50 141 100 164 112 56 29 162 34 311 14 135 -18 289 -20
354 -5 161 37 264 149 371 404 107 253 126 274 331 364 232 101 278 128 350
201 72 73 98 126 119 241 13 68 9 129 -17 339 -17 136 -13 211 16 274 10 23
64 102 120 176 261 347 262 501 5 846 -157 210 -167 243 -141 460 28 224 29
249 18 329 -18 127 -68 215 -168 294 -56 45 -116 76 -272 142 -225 96 -252
122 -351 354 -33 77 -78 169 -100 206 -79 133 -187 208 -329 230 -75 11 -100
10 -341 -17 -217 -24 -248 -15 -454 140 -139 105 -262 171 -345 186 -69 13
-102 12 -175 -6z m197 -267 c29 -13 113 -69 186 -125 160 -119 236 -159 344
-180 83 -16 132 -14 417 18 204 23 248 -8 356 -256 92 -212 121 -262 194 -335
68 -69 145 -112 374 -210 120 -51 189 -104 207 -156 17 -50 15 -146 -6 -318
-35 -287 -11 -375 178 -627 117 -156 151 -222 149 -290 -1 -61 -27 -109 -142
-263 -50 -66 -104 -143 -120 -172 -76 -129 -92 -248 -65 -468 23 -183 23 -281
0 -328 -28 -60 -72 -86 -340 -203 -162 -71 -252 -142 -318 -252 -20 -31 -63
-122 -98 -202 -78 -183 -119 -247 -173 -271 -51 -23 -157 -24 -306 -4 -138 19
-272 19 -345 0 -84 -22 -163 -67 -308 -176 -150 -113 -203 -141 -272 -147 -67
-5 -129 26 -290 147 -136 103 -246 164 -323 180 -72 15 -205 13 -332 -4 -134
-18 -251 -19 -293 -1 -62 25 -114 102 -177 261 -118 297 -197 377 -496 501
-175 72 -244 118 -270 181 -18 42 -18 160 1 298 40 297 11 402 -176 650 -151
200 -176 277 -124 381 13 27 69 108 123 181 113 151 154 223 176 309 20 76 20
205 1 344 -21 154 -20 262 4 309 27 52 100 99 268 170 183 79 245 116 314 188
63 66 111 147 164 278 58 141 115 244 150 271 60 45 138 48 409 14 234 -29
336 2 567 174 237 176 272 188 392 133z"/>
<path d="M3760 7179 c-727 -77 -1362 -592 -1590 -1289 -106 -322 -124 -650
-56 -981 116 -557 490 -1045 999 -1300 281 -142 539 -202 857 -202 348 1 649
81 940 251 453 264 767 683 894 1191 136 541 16 1127 -323 1581 -81 109 -262
291 -366 370 -394 297 -873 431 -1355 379z m375 -249 c134 -16 227 -37 360
-81 413 -140 752 -439 945 -834 257 -524 215 -1143 -109 -1627 -208 -309 -498
-531 -851 -649 -325 -109 -711 -108 -1034 2 -626 213 -1062 770 -1115 1426
-49 610 246 1195 770 1524 302 189 687 278 1034 239z"/>
<path d="M3345 5787 c-138 -46 -225 -148 -225 -264 l0 -33 120 0 120 0 0 25
c0 14 13 39 29 57 27 30 35 33 86 33 51 0 59 -3 86 -33 22 -24 29 -42 29 -73
0 -76 -26 -105 -292 -324 l-158 -129 0 -93 0 -93 355 0 355 0 0 100 0 100
-182 0 -183 1 60 52 c120 102 241 232 266 282 33 68 34 181 2 240 -30 57 -79
100 -148 131 -52 24 -75 28 -170 31 -72 2 -124 -2 -150 -10z"/>
<path d="M4026 5768 c-3 -13 -12 -126 -20 -252 -11 -160 -13 -232 -5 -236 5
-4 55 -15 110 -25 l100 -18 14 20 c8 12 35 29 60 39 38 14 52 15 85 5 145 -43
117 -261 -34 -261 -52 0 -104 31 -118 70 l-10 30 -119 0 c-119 0 -119 0 -119
-24 0 -13 7 -42 15 -65 44 -126 175 -201 350 -201 168 0 288 68 347 195 18 40
23 68 23 136 0 75 -4 92 -30 144 -55 107 -156 162 -278 153 -69 -6 -117 -26
-153 -65 l-24 -26 0 34 c0 19 3 64 7 102 l6 67 208 0 209 0 0 100 0 100 -310
0 -310 0 -4 -22z"/>
<path d="M1917 2798 c-97 -211 -260 -563 -362 -783 -102 -220 -185 -405 -185
-411 0 -7 8 -10 18 -8 9 2 96 13 192 24 96 11 366 42 599 70 233 28 425 49
426 48 3 -4 357 -536 535 -805 85 -128 157 -230 161 -225 4 4 25 48 47 97 22
50 60 133 85 185 24 52 56 120 69 150 14 30 111 240 215 465 105 226 220 473
255 550 l65 140 -101 6 c-56 4 -115 10 -131 14 -36 8 -2 74 -307 -585 -125
-272 -232 -498 -237 -503 -5 -5 -124 166 -271 387 l-263 396 -31 -5 c-72 -12
-890 -106 -901 -103 -12 3 27 92 204 473 18 39 80 173 138 298 l106 229 -22
36 c-12 20 -45 83 -72 140 -28 56 -51 102 -53 102 -1 0 -81 -172 -179 -382z"/>
<path d="M5822 3160 c-27 -69 -74 -165 -102 -207 l-31 -46 27 -61 c15 -34 119
-259 230 -500 112 -242 202 -442 199 -444 -3 -4 -217 20 -830 93 -60 7 -111
13 -112 12 0 -1 -111 -168 -246 -372 -288 -435 -277 -419 -287 -408 -4 4 -90
186 -190 403 -101 217 -194 419 -207 448 -14 28 -28 52 -31 52 -8 0 -132 -270
-132 -286 0 -10 171 -383 489 -1068 l36 -79 70 104 c38 57 192 291 343 519
151 228 276 416 277 418 2 2 270 -29 596 -68 327 -39 606 -70 620 -68 l25 3
-85 185 c-47 102 -105 226 -128 275 -22 50 -140 305 -262 568 -121 262 -229
494 -240 515 l-19 37 -10 -25z"/>
</g>
</svg>
